<svg height="50" width="50" viewBox="0 0 64 56" fill="#101010" xmlns="http://www.w3.org/2000/svg"><path d="M29.2149 20.1929C29.2149 24.4096 28.4559 28.4576 26.9379 32.3369C25.4199 36.3849 23.6489 39.6739 21.6249 42.2039C19.7696 44.7339 17.6612 47.0952 15.2999 49.2879C12.9386 51.4806 11.1676 52.9986 9.98691 53.8419C8.80624 54.6852 7.96291 55.1912 7.45691 55.3599L1.38491 49.0349L4.67391 45.4929C6.02324 43.8062 7.70991 41.1076 9.73391 37.3969C12.0952 33.5176 13.1072 30.2286 12.7699 27.5299C9.39657 27.0239 6.52924 25.5059 4.16791 22.9759C1.97524 20.2772 0.878906 17.1569 0.878906 13.6149C0.878906 10.0729 2.14391 7.03691 4.67391 4.50691C7.37257 1.97691 10.6616 0.711914 14.5409 0.711914C18.7576 0.711914 22.2152 2.4829 24.9139 6.0249C27.7812 9.5669 29.2149 14.2896 29.2149 20.1929Z" data-fill="true"></path><path d="M63.9431 20.1929C63.9431 24.4096 63.1841 28.4576 61.6661 32.3369C60.1481 36.3849 58.3771 39.6739 56.3531 42.2039C54.4978 44.7339 52.3894 47.0952 50.0281 49.2879C47.6668 51.4806 45.8958 52.9986 44.7151 53.8419C43.5344 54.6852 42.6911 55.1912 42.1851 55.3599L36.1131 49.0349L39.4021 45.4929C40.7514 43.8062 42.4381 41.1076 44.4621 37.3969C46.8234 33.5176 47.8354 30.2286 47.4981 27.5299C44.1248 27.0239 41.2574 25.5059 38.8961 22.9759C36.7034 20.2772 35.6071 17.1569 35.6071 13.6149C35.6071 10.0729 36.8721 7.03691 39.4021 4.50691C42.1008 1.97691 45.3898 0.711914 49.2691 0.711914C53.4858 0.711914 56.9434 2.4829 59.6421 6.0249C62.5094 9.5669 63.9431 14.2896 63.9431 20.1929Z" data-fill="true"></path></svg>