<svg width="64" height="64" viewBox="0 0 64 64" fill="none" xmlns="http://www.w3.org/2000/svg">
<path d="M3 32.0587C3 31.2884 3.5916 30.6671 4.33316 30.4585C5.08367 30.2474 5.69373 29.9243 6.16333 29.4893C6.91444 28.8203 7.29 27.9422 7.29 26.855C7.29 25.8514 7.17444 24.0116 6.94333 21.3354C6.68333 18.8265 6.55333 16.8194 6.55333 15.3141C6.55333 13.3348 7.14555 11.7877 8.33 10.6726C9.54333 9.55753 11.1322 9 13.0967 9H14.5C15.3284 9 16 9.67157 16 10.5V11.6397C16 12.4681 15.3284 13.1397 14.5 13.1397H14.0933C13.1689 13.1397 12.4756 13.3488 12.0133 13.7669C11.58 14.1572 11.3633 14.7983 11.3633 15.6904C11.3633 16.3594 11.4067 17.2515 11.4933 18.3665C11.58 19.4816 11.6378 20.2761 11.6667 20.75C11.9267 23.3147 12.0567 25.4054 12.0567 27.0222C12.0567 28.444 11.6811 29.6287 10.93 30.5765C10.2143 31.5158 9.10133 32.1402 7.59118 32.4498C7.56736 32.4547 7.55 32.4757 7.55 32.5V32.5C7.55 32.5243 7.56736 32.5453 7.59118 32.5502C9.10133 32.8598 10.2143 33.4842 10.93 34.4235C11.6811 35.3713 12.0567 36.5561 12.0567 37.9778C12.0567 39.5946 11.9267 41.6854 11.6667 44.25C11.6378 44.7239 11.58 45.5184 11.4933 46.6335C11.4067 47.7485 11.3633 48.6406 11.3633 49.3096C11.3633 50.2017 11.58 50.8428 12.0133 51.2331C12.4756 51.6512 13.1689 51.8603 14.0933 51.8603H14.5C15.3284 51.8603 16 52.5319 16 53.3603V54.5C16 55.3284 15.3284 56 14.5 56H13.0967C11.1322 56 9.54333 55.4425 8.33 54.3274C7.14555 53.2123 6.55333 51.6652 6.55333 49.6859C6.55333 48.1806 6.68333 46.1735 6.94333 43.6646C7.17444 40.9884 7.29 39.1486 7.29 38.145C7.29 37.0578 6.91444 36.1797 6.16333 35.5107C5.69373 35.0757 5.08367 34.7526 4.33316 34.5415C3.5916 34.3329 3 33.7116 3 32.9413V32.0587Z" fill="white"/>
<path d="M63 32.9413C63 33.7116 62.4088 34.3338 61.6666 34.5401C60.9072 34.7512 60.2828 35.0747 59.7933 35.5107C59.0711 36.1797 58.71 37.0578 58.71 38.145C58.71 39.1486 58.8255 40.9884 59.0566 43.6646C59.3166 46.1735 59.4467 48.1806 59.4467 49.6859C59.4467 51.6652 58.84 53.2123 57.6267 54.3274C56.4422 55.4425 54.8677 56 52.9033 56H51.5C50.6716 56 50 55.3284 50 54.5V53.3603C50 52.5319 50.6716 51.8603 51.5 51.8603H51.9067C52.8311 51.8603 53.51 51.6512 53.9433 51.2331C54.4055 50.8428 54.6367 50.2017 54.6367 49.3096C54.6367 48.6406 54.5933 47.7485 54.5067 46.6335C54.42 45.5184 54.3622 44.7239 54.3333 44.25C54.0733 41.6854 53.9433 39.5946 53.9433 37.9778C53.9433 36.5561 54.3044 35.3713 55.0267 34.4235C55.771 33.4842 56.8984 32.8598 58.4088 32.5502C58.4326 32.5453 58.45 32.5243 58.45 32.5V32.5C58.45 32.4757 58.4326 32.4547 58.4088 32.4498C56.8984 32.1402 55.771 31.5158 55.0267 30.5765C54.3044 29.6287 53.9433 28.444 53.9433 27.0222C53.9433 25.4054 54.0733 23.3147 54.3333 20.75C54.3622 20.2761 54.42 19.4816 54.5067 18.3665C54.5933 17.2515 54.6367 16.3594 54.6367 15.6904C54.6367 14.7983 54.4055 14.1572 53.9433 13.7669C53.51 13.3488 52.8311 13.1397 51.9067 13.1397H51.5C50.6716 13.1397 50 12.4681 50 11.6397V10.5C50 9.67157 50.6716 9 51.5 9H52.9033C54.8677 9 56.4422 9.55753 57.6267 10.6726C58.84 11.7877 59.4467 13.3348 59.4467 15.3141C59.4467 16.8194 59.3166 18.8265 59.0566 21.3354C58.8255 24.0116 58.71 25.8514 58.71 26.855C58.71 27.9422 59.0711 28.8203 59.7933 29.4893C60.2828 29.9253 60.9072 30.2488 61.6666 30.4599C62.4088 30.6662 63 31.2884 63 32.0587V32.9413Z" fill="white"/>
<path d="M39.8233 48.275C39.4655 48.275 39.135 48.0839 38.9566 47.7738L32.3334 36.2662C32.155 35.9561 31.8245 35.765 31.4667 35.765H29.13C28.5777 35.765 28.13 36.2127 28.13 36.765V47.275C28.13 47.8273 27.6823 48.275 27.13 48.275H24C23.4477 48.275 23 47.8273 23 47.275V18C23 17.4477 23.4477 17 24 17H33.8C36.2 17 38.225 17.42 39.875 18.26C41.555 19.1 42.8 20.225 43.61 21.635C44.45 23.045 44.87 24.62 44.87 26.36C44.87 28.4 44.27 30.26 43.07 31.94C42.1163 33.285 40.734 34.2812 38.923 34.9285C38.2892 35.155 37.9746 35.9004 38.3197 36.4782L44.4616 46.7623C44.8596 47.4288 44.3794 48.275 43.603 48.275H39.8233ZM28.13 30.67C28.13 31.2223 28.5777 31.67 29.13 31.67H33.8C35.72 31.67 37.16 31.19 38.12 30.23C39.11 29.27 39.605 27.98 39.605 26.36C39.605 24.74 39.125 23.48 38.165 22.58C37.205 21.65 35.75 21.185 33.8 21.185H29.13C28.5777 21.185 28.13 21.6327 28.13 22.185V30.67Z" fill="white"/>
</svg>
