<svg width="448" height="448" viewBox="0 0 448 448" fill="none" xmlns="http://www.w3.org/2000/svg">
<g clip-path="url(#clip0_24_116)">
<path d="M151.253 207.381C148.847 205.642 144.85 204.137 139.191 204.137C127.506 204.137 119.288 213.391 119.288 226.376C119.288 235.629 125.018 243.865 134.287 243.865C138.742 243.865 142.352 242.36 145.37 240.459L143.718 251.054C139.838 252.105 135.829 252.608 131.809 252.549C115.903 252.549 108.296 241.323 108.296 226.366C108.296 208.561 119.828 195.433 138.437 195.433C143.718 195.433 149.296 196.145 153.894 198.118L151.253 207.381ZM155.771 216.319C156.076 214.58 156.372 212.76 156.678 210.859H166.324L164.978 218.536H165.131C166.946 214.102 171.911 209.913 176.581 209.913C177.866 209.913 179.222 209.994 180.436 210.31L178.315 220.681C177.079 220.267 175.785 220.054 174.481 220.051C167.323 220.051 163.856 226.782 162.582 233.341L158.962 251.624H148.857L155.771 216.319ZM212.758 245.757C212.31 248.207 211.932 250.343 211.79 251.614H201.909L202.582 247.658H202.429C199.646 250.343 195.802 252.559 191.417 252.559C183.8 252.559 178.753 247.577 178.753 239.513C178.753 236.422 179.508 233.178 180.038 230.646L184.106 210.869H194.201L190.438 230.097C189.908 232.873 189.307 235.639 189.307 238.649C189.307 242.045 191.57 244.353 194.813 244.353C201.818 244.353 204.377 237.469 205.662 231.379L209.812 210.879H219.906L212.758 245.757ZM228.746 210.859H238.841L230.541 251.614H220.446L228.746 210.859ZM232.427 193.298H242.532L240.421 203.426H230.327L232.427 193.298ZM269.063 219.563C266.422 218.536 263.638 217.661 260.773 217.661C257.765 217.661 253.982 218.536 253.982 221.78C253.982 226.925 267.105 228.816 267.105 238.791C267.105 249.397 258.285 252.559 249.618 252.559C245.55 252.559 241.482 251.929 237.79 250.109L239.973 241.649C242.838 243.306 245.703 244.811 249.618 244.811C253.014 244.811 256.562 243.631 256.562 240.306C256.562 233.738 243.449 233.107 243.449 222.898C243.449 213.33 252.259 209.923 260.253 209.923C263.934 209.923 267.707 210.635 271.255 211.591L269.063 219.563ZM281.574 234.521C281.574 242.035 285.418 244.801 292.352 244.801C296.501 244.801 300.488 243.703 304.261 241.882L302.986 250.261C299.071 251.532 294.768 252.559 290.618 252.559C279.473 252.559 271.928 246.865 271.928 234.754C271.928 222.095 281.268 209.913 294.014 209.913C303.588 209.913 309.92 215.058 309.92 225.42C309.92 228.501 309.543 231.511 308.931 234.521H281.574ZM300.04 227.24C300.193 226.284 300.264 225.42 300.264 224.464C300.264 220.112 298.072 217.661 293.861 217.661C287.6 217.661 284.888 221.627 282.93 227.24H300.04ZM358.761 202.877C354.917 200.741 350.624 200.182 346.097 200.182C330.792 200.182 320.32 212.445 320.32 228.43C320.32 239.198 328.386 247.821 339.459 247.821C346.025 247.821 347.677 246.865 350.695 246.001L350.094 250.831C347.983 251.461 345.424 252.569 339.846 252.569C326.357 252.569 315.12 243.316 315.12 228.359C315.12 209.059 328.243 195.443 346.403 195.443C352.062 195.443 356.191 196.155 360.576 198.291L358.761 202.877ZM367.876 192.271H372.842L360.79 251.614H355.814L367.876 192.271ZM402.096 245.197C401.647 247.892 401.351 249.641 401.188 251.614H396.437C396.558 249.562 396.838 247.522 397.273 245.513H397.12C394.479 249.783 389.656 252.549 384.904 252.549C377.971 252.549 372.842 248.441 372.842 240.845C372.842 238.08 373.454 235.07 373.984 232.538L378.287 211.255H383.253L378.878 233.494C378.338 235.801 378.061 238.161 378.052 240.53C378.052 245.279 380.612 248.289 385.435 248.289C393.724 248.289 398.18 239.656 399.985 230.402L403.758 211.255H408.733L402.096 245.197ZM422.223 216.645H422.366C425.15 212.842 428.698 210.31 435.04 210.31C443.85 210.31 448 217.824 448 226.61C448 239.34 441.291 252.559 428.402 252.559C420.49 252.559 417.696 248.055 416.574 244.496H416.421C416.197 246.163 415.361 248.766 414.759 251.624H409.865C410.62 248.777 411.364 246.163 411.904 243.387L422.305 192.281H427.281L422.223 216.645ZM418.604 235.466C418.604 242.35 420.938 248.289 428.402 248.289C438.272 248.289 442.8 235.944 442.8 226.61C442.8 219.878 440.016 214.58 433.378 214.58C423.946 214.58 418.604 226.528 418.604 235.466ZM22.4626 234.073C21.5401 230.394 20.0982 226.864 18.1801 223.59C14.1831 216.919 7.00478 211.479 7.00478 211.479C7.00478 211.479 17.5071 209.842 30.2424 211.774C46.1386 214.174 65.4405 222.685 65.4405 222.685C65.4405 222.685 56.7837 217.468 44.65 213.543C36.2889 210.838 26.429 209.598 26.429 209.598L26.3984 208.683L28.3867 208.571L28.2337 206.161L30.2424 206.049L30.1099 203.609L41.4891 202.999C43.7935 202.877 46.1284 203.283 48.5246 204.483L50.2886 200.131L46.7912 200.324L46.7402 199.338L55.8558 198.84L55.9068 199.826L52.3177 200.029L52.6949 206.985C61.9533 212.72 73.7913 220.02 73.7913 220.02L73.8627 221.647L75.4635 222.674L75.5451 224.291L77.1867 225.288L77.2683 226.884L83.4881 229.945C83.4881 229.945 83.9979 231.44 83.1108 233.544C82.8454 234.143 82.5173 234.712 82.132 235.243C86.1596 236.707 89.453 238.364 91.5535 239.534C93.8608 232.977 94.6807 225.991 93.9543 219.08C93.2278 212.169 90.973 205.505 87.3523 199.568C83.7316 193.631 78.8353 188.568 73.0162 184.746C67.1971 180.924 60.6001 178.436 53.7008 177.463C46.8014 176.49 39.7715 177.055 33.1176 179.118C26.4638 181.181 20.3517 184.691 15.222 189.394C10.0922 194.097 6.07257 199.876 3.45266 206.315C0.83275 212.754 -0.32214 219.692 0.0712204 226.63C3.84389 228.643 12.5516 232.802 22.4626 234.073Z" fill="black"/>
<path d="M64.9919 235.334C58.0685 235.283 54.2142 235.782 51.3388 236.473C52.3279 236.432 53.3679 236.371 54.5099 236.331C65.9911 235.822 75.484 240.601 78.9813 244.587C69.1112 240.601 61.1376 239.442 51.0126 240.184C39.9494 240.998 32.6998 240.927 24.4713 239.951C16.1941 239.192 8.15711 236.767 0.846191 232.823C2.73113 242.727 7.76232 251.763 15.1957 258.596C22.6291 265.428 32.07 269.693 42.1221 270.76C52.1743 271.828 62.3041 269.641 71.0134 264.522C79.7227 259.404 86.549 251.627 90.4829 242.34C86.0169 239.951 76.0244 235.415 64.9919 235.334Z" fill="black"/>
</g>
<defs>
<clipPath id="clip0_24_116">
<rect width="448" height="448" fill="white"/>
</clipPath>
</defs>
</svg>
