<svg width="28" height="27" viewBox="0 0 28 27" fill="none" xmlns="http://www.w3.org/2000/svg"><path d="M14 0C6.26802 0 0 6.04551 0 13.5005C0 20.9567 6.26802 27 14 27C21.732 27 28 20.9567 28 13.5005C28 6.04551 21.7314 0 14 0ZM17.7051 13.4441H15.2809C15.2809 17.1798 15.2809 21.7813 15.2809 21.7813H11.6878C11.6878 21.7813 11.6878 17.227 11.6878 13.4441H9.9788V10.5005H11.6878V8.5932C11.6878 7.22807 12.3598 5.09704 15.3144 5.09704L17.9751 5.10691V7.96601C17.9751 7.96601 16.3571 7.96601 16.0433 7.96601C15.7278 7.96601 15.2815 8.11787 15.2815 8.767V10.5011H18.0206L17.7051 13.4441Z" fill="white"/></svg>