<svg width="28" height="28" viewBox="0 0 28 28" fill="none" xmlns="http://www.w3.org/2000/svg"><path d="M14.0342 16.2905C15.3896 16.2905 16.4883 15.1917 16.4883 13.8359C16.4883 12.4802 15.3896 11.3811 14.0342 11.3811C12.6777 11.3811 11.5791 12.4802 11.5791 13.8359C11.5791 15.1917 12.6777 16.2905 14.0342 16.2905Z" fill="white"/><path fill-rule="evenodd" clip-rule="evenodd" d="M17.1016 7.81055H10.9648C10.0723 7.81055 9.29102 8.0896 8.78906 8.59155C8.52051 8.8606 8.31543 9.20972 8.18262 9.61304C8.06836 9.96265 8.00781 10.353 8.00781 10.7673V16.9043C8.00781 17.7969 8.28711 18.5779 8.84473 19.1357C9.40234 19.6379 10.1279 19.917 11.0205 19.917H17.1016C17.9941 19.917 18.7754 19.6379 19.2773 19.1357C19.835 18.6338 20.1143 17.8528 20.1143 16.96V10.8232C20.1143 9.93066 19.835 9.20532 19.333 8.64746C18.7754 8.0896 18.0498 7.81055 17.1016 7.81055ZM14.0332 17.6296C11.9131 17.6296 10.2393 15.9001 10.2393 13.8359C10.2393 11.7158 11.9688 10.0422 14.0332 10.0422C16.0977 10.0422 17.8828 11.7158 17.8828 13.8359C17.8828 15.9558 16.1533 17.6296 14.0332 17.6296ZM17.9941 10.7673C17.4922 10.7673 17.1016 10.377 17.1016 9.87476C17.1016 9.69019 17.1543 9.52075 17.2461 9.38037C17.334 9.24536 17.457 9.13696 17.6045 9.06763C17.7217 9.0127 17.8535 8.98218 17.9941 8.98218C18.4961 8.98218 18.8867 9.37256 18.8867 9.87476C18.8867 10.1116 18.7998 10.3235 18.6553 10.4814C18.4932 10.6582 18.2598 10.7673 17.9941 10.7673Z" fill="white"/><path fill-rule="evenodd" clip-rule="evenodd" d="M0.420898 13.7244C0.420898 6.13696 6.55762 0 14.1455 0C21.7324 0 27.9248 6.13696 27.8691 13.7244C27.8691 21.3118 21.7324 27.4485 14.1455 27.4485C6.55762 27.4485 0.420898 21.3118 0.420898 13.7244ZM20.2266 20.1401C21.0068 19.3591 21.4531 18.2432 21.4531 16.96V10.8232C21.4531 10.0374 21.3076 9.33521 21.0146 8.72974C20.8291 8.34644 20.585 8.00171 20.2822 7.69897C19.501 6.91797 18.4414 6.47168 17.1582 6.47168H11.0205C8.39844 6.47168 6.66895 8.25684 6.66895 10.8232V16.96C6.66895 18.2432 7.05957 19.3591 7.89648 20.1401C8.67773 20.9211 9.79395 21.3118 11.0205 21.3118H17.1016C18.3291 21.3118 19.4453 20.9211 20.2266 20.1401Z" fill="white"/></svg>